<?xml version="1.0" encoding="UTF-8" standalone="no"?>
<!-- Created with Inkscape (http://www.inkscape.org/) -->

<svg
   xmlns:dc="http://purl.org/dc/elements/1.1/"
   xmlns:cc="http://creativecommons.org/ns#"
   xmlns:rdf="http://www.w3.org/1999/02/22-rdf-syntax-ns#"
   xmlns:svg="http://www.w3.org/2000/svg"
   xmlns="http://www.w3.org/2000/svg"
   xmlns:sodipodi="http://sodipodi.sourceforge.net/DTD/sodipodi-0.dtd"
   xmlns:inkscape="http://www.inkscape.org/namespaces/inkscape"
   version="1.1"
   id="svg10"
   xml:space="preserve"
   width="62.667332"
   height="57.934933"
   viewBox="0 0 62.667332 57.934933"
   sodipodi:docname="clock.svg"
   inkscape:version="0.92.3 (2405546, 2018-03-11)"><metadata
     id="metadata16"><rdf:RDF><cc:Work
         rdf:about=""><dc:format>image/svg+xml</dc:format><dc:type
           rdf:resource="http://purl.org/dc/dcmitype/StillImage" /><dc:title></dc:title></cc:Work></rdf:RDF></metadata><defs
     id="defs14"><clipPath
       clipPathUnits="userSpaceOnUse"
       id="clipPath26"><path
         d="M 0,43.451 H 47 V 0 H 0 Z"
         id="path24"
         inkscape:connector-curvature="0" /></clipPath></defs><sodipodi:namedview
     pagecolor="#ffffff"
     bordercolor="#666666"
     borderopacity="1"
     objecttolerance="10"
     gridtolerance="10"
     guidetolerance="10"
     inkscape:pageopacity="0"
     inkscape:pageshadow="2"
     inkscape:window-width="640"
     inkscape:window-height="480"
     id="namedview12"
     showgrid="false"
     inkscape:zoom="9.3035406"
     inkscape:cx="31.333666"
     inkscape:cy="28.967466"
     inkscape:window-x="0"
     inkscape:window-y="0"
     inkscape:window-maximized="1"
     inkscape:current-layer="g18" /><g
     id="g18"
     inkscape:groupmode="layer"
     inkscape:label="clock"
     transform="matrix(1.3333333,0,0,-1.3333333,0,57.934933)"><g
       id="g20"><g
         id="g22"
         clip-path="url(#clipPath26)"><g
           id="g28"
           transform="translate(46.9067,25.106)"><path
             d="m 0,0 c -0.162,0.347 -0.511,0.569 -0.896,0.569 h -2.926 c -1.862,10.099 -10.73,17.776 -21.359,17.776 -11.979,0 -21.726,-9.747 -21.726,-21.726 0,-11.979 9.746,-21.725 21.726,-21.725 7.732,0 14.941,4.161 18.816,10.856 0.547,0.946 0.224,2.153 -0.722,2.7 -0.944,0.547 -2.151,0.225 -2.696,-0.72 -3.172,-5.481 -9.072,-8.887 -15.398,-8.887 -9.801,0 -17.776,7.974 -17.776,17.774 0,9.802 7.975,17.776 17.776,17.776 8.443,0 15.515,-5.921 17.318,-13.825 h -2.905 c -0.384,0 -0.732,-0.222 -0.896,-0.569 -0.162,-0.347 -0.109,-0.756 0.137,-1.051 l 4.937,-5.925 c 0.188,-0.226 0.465,-0.355 0.76,-0.355 0.293,0 0.57,0.131 0.758,0.355 l 4.937,5.925 C 0.111,-0.756 0.163,-0.347 0,0"
             style="fill:#ffffff;fill-opacity:1;fill-rule:nonzero;stroke:none"
             id="path30"
             inkscape:connector-curvature="0" /></g><g
           id="g32"
           transform="translate(21.7261,20.2441)"><path
             d="m 0,0 c -0.817,0 -1.481,0.665 -1.481,1.48 0,0.816 0.665,1.481 1.481,1.481 0.816,0 1.481,-0.665 1.481,-1.481 C 1.481,0.665 0.816,0 0,0 m 0,18.269 c -1.091,0 -1.975,-0.884 -1.975,-1.975 V 4.31 C -2.868,3.684 -3.456,2.652 -3.456,1.48 c 0,-1.907 1.551,-3.458 3.457,-3.458 0.522,0 1.014,0.125 1.458,0.334 l 6.87,-3.964 c 0.313,-0.181 0.65,-0.266 0.986,-0.266 0.682,0 1.346,0.353 1.711,0.988 0.545,0.944 0.223,2.153 -0.723,2.698 L 3.426,1.782 C 3.334,2.826 2.791,3.738 1.977,4.308 V 16.294 C 1.975,17.384 1.09,18.269 0,18.269"
             style="fill:#ffffff;fill-opacity:1;fill-rule:nonzero;stroke:none"
             id="path34"
             inkscape:connector-curvature="0" /></g></g></g></g></svg>