<?xml version="1.0" encoding="UTF-8" standalone="no"?>
<!-- Created with Inkscape (http://www.inkscape.org/) -->

<svg
   xmlns:dc="http://purl.org/dc/elements/1.1/"
   xmlns:cc="http://creativecommons.org/ns#"
   xmlns:rdf="http://www.w3.org/1999/02/22-rdf-syntax-ns#"
   xmlns:svg="http://www.w3.org/2000/svg"
   xmlns="http://www.w3.org/2000/svg"
   xmlns:sodipodi="http://sodipodi.sourceforge.net/DTD/sodipodi-0.dtd"
   xmlns:inkscape="http://www.inkscape.org/namespaces/inkscape"
   version="1.1"
   id="svg40"
   xml:space="preserve"
   width="665.49731"
   height="96.714798"
   viewBox="0 0 665.49731 96.714798"
   sodipodi:docname="effio-logo.svg"
   inkscape:version="0.92.3 (2405546, 2018-03-11)"><metadata
     id="metadata46"><rdf:RDF><cc:Work
         rdf:about=""><dc:format>image/svg+xml</dc:format><dc:type
           rdf:resource="http://purl.org/dc/dcmitype/StillImage" /><dc:title></dc:title></cc:Work></rdf:RDF></metadata><defs
     id="defs44"><clipPath
       clipPathUnits="userSpaceOnUse"
       id="clipPath56"><path
         d="M 0,72.536 H 499.123 V 0 H 0 Z"
         id="path54"
         inkscape:connector-curvature="0" /></clipPath></defs><sodipodi:namedview
     pagecolor="#ffffff"
     bordercolor="#666666"
     borderopacity="1"
     objecttolerance="10"
     gridtolerance="10"
     guidetolerance="10"
     inkscape:pageopacity="0"
     inkscape:pageshadow="2"
     inkscape:window-width="640"
     inkscape:window-height="480"
     id="namedview42"
     showgrid="false"
     inkscape:zoom="1.8196918"
     inkscape:cx="332.74866"
     inkscape:cy="48.357399"
     inkscape:window-x="0"
     inkscape:window-y="0"
     inkscape:window-maximized="1"
     inkscape:current-layer="g48" /><g
     id="g48"
     inkscape:groupmode="layer"
     inkscape:label="effio-logo"
     transform="matrix(1.3333333,0,0,-1.3333333,0,96.7148)"><g
       id="g50"><g
         id="g52"
         clip-path="url(#clipPath56)"><g
           id="g58"
           transform="translate(103.5771,6.6895)"><path
             d="m 0,0 c -0.364,-0.248 -0.903,-0.482 -1.618,-0.703 -0.416,-0.129 -0.849,-0.231 -1.296,-0.301 -0.449,-0.072 -0.9,-0.107 -1.356,-0.107 -1.82,0 -3.262,0.466 -4.328,1.402 -1.066,0.938 -1.599,2.243 -1.599,3.92 0,0.534 0.052,1.084 0.156,1.657 0.221,1.091 0.592,2.073 1.111,2.945 0.52,0.869 1.163,1.605 1.93,2.203 0.768,0.597 1.629,1.052 2.584,1.363 0.955,0.313 1.973,0.469 3.051,0.469 0.793,0 1.537,-0.084 2.232,-0.254 C 1.562,12.426 2.17,12.211 2.69,11.951 2.574,11.809 2.459,11.609 2.35,11.355 2.238,11.104 2.125,10.827 2.008,10.528 L 1.988,10.43 1.852,10.391 c -0.299,0.43 -0.731,0.826 -1.296,1.189 -0.566,0.363 -1.251,0.547 -2.058,0.547 -0.779,0 -1.523,-0.125 -2.231,-0.371 C -4.442,11.51 -5.089,11.125 -5.674,10.606 -6.258,10.086 -6.762,9.43 -7.185,8.637 -7.607,7.844 -7.922,6.92 -8.131,5.868 -8.26,5.206 -8.325,4.583 -8.325,3.997 c 0,-1.455 0.393,-2.552 1.179,-3.286 0.787,-0.734 1.855,-1.102 3.208,-1.102 0.792,0 1.527,0.153 2.203,0.459 0.675,0.305 1.358,0.686 2.047,1.141 l 0.02,0.02 0.059,-0.079 z"
             style="fill:#ffffff;fill-opacity:1;fill-rule:nonzero;stroke:none"
             id="path60"
             inkscape:connector-curvature="0" /></g><g
           id="g62"
           transform="translate(107.5537,8.9902)"><path
             d="m 0,0 c 0,-0.832 0.189,-1.496 0.566,-1.99 0.377,-0.494 0.975,-0.74 1.793,-0.74 0.559,0 1.057,0.113 1.493,0.341 0.435,0.227 0.808,0.539 1.121,0.936 0.311,0.396 0.568,0.844 0.769,1.346 0.201,0.5 0.362,1.035 0.479,1.607 0.103,0.547 0.155,1.047 0.155,1.502 0,0.832 -0.189,1.495 -0.565,1.988 C 5.434,5.484 4.836,5.73 4.018,5.73 3.458,5.73 2.961,5.617 2.525,5.391 2.09,5.162 1.717,4.854 1.404,4.465 1.092,4.075 0.836,3.625 0.635,3.12 0.433,2.612 0.279,2.073 0.176,1.5 0.059,0.956 0,0.454 0,0 M -0.721,3.713 C -0.33,4.344 0.131,4.85 0.664,5.234 1.196,5.617 1.758,5.9 2.35,6.082 2.941,6.264 3.536,6.355 4.134,6.355 4.654,6.355 5.145,6.287 5.605,6.15 6.067,6.014 6.483,5.799 6.854,5.508 7.225,5.215 7.517,4.838 7.73,4.377 7.945,3.915 8.053,3.374 8.053,2.749 8.053,2.358 8.014,1.942 7.936,1.5 7.767,0.657 7.487,-0.078 7.098,-0.703 6.707,-1.326 6.246,-1.834 5.713,-2.223 5.18,-2.613 4.618,-2.898 4.027,-3.082 3.436,-3.264 2.84,-3.354 2.242,-3.354 c -0.519,0 -1.01,0.069 -1.471,0.204 -0.462,0.136 -0.877,0.351 -1.248,0.644 -0.371,0.293 -0.664,0.67 -0.877,1.131 -0.214,0.461 -0.322,1.004 -0.322,1.627 0,0.391 0.045,0.807 0.137,1.248 0.155,0.846 0.428,1.583 0.818,2.213"
             style="fill:#ffffff;fill-opacity:1;fill-rule:nonzero;stroke:none"
             id="path64"
             inkscape:connector-curvature="0" /></g><g
           id="g66"
           transform="translate(124.2822,12.3638)"><path
             d="m 0,0 c 0,0.637 -0.146,1.123 -0.438,1.461 -0.292,0.337 -0.699,0.507 -1.218,0.507 -0.898,0 -1.615,-0.273 -2.155,-0.818 -0.54,-0.546 -0.907,-1.339 -1.101,-2.379 l -0.332,-1.658 c -0.117,-0.623 -0.225,-1.258 -0.322,-1.901 -0.098,-0.644 -0.172,-1.224 -0.224,-1.746 -0.312,0.067 -0.599,0.098 -0.858,0.098 -0.26,0 -0.559,-0.031 -0.897,-0.098 0.156,0.494 0.309,1.073 0.458,1.737 0.15,0.662 0.282,1.298 0.4,1.91 l 0.41,2.028 c 0.117,0.625 0.224,1.254 0.321,1.892 0.098,0.636 0.173,1.22 0.224,1.754 0.312,-0.065 0.598,-0.098 0.858,-0.098 0.195,0 0.462,0.033 0.8,0.098 C -4.218,2.242 -4.341,1.72 -4.445,1.227 h 0.039 c 0.494,0.571 1.023,1.007 1.59,1.306 0.564,0.299 1.191,0.449 1.88,0.449 0.338,0 0.657,-0.039 0.956,-0.117 C 0.318,2.787 0.588,2.656 0.829,2.474 1.069,2.292 1.261,2.042 1.404,1.724 1.547,1.406 1.619,1.025 1.619,0.584 1.619,0.271 1.586,-0.059 1.521,-0.41 1.456,-0.773 1.339,-1.32 1.17,-2.049 0.975,-2.893 0.832,-3.549 0.741,-4.018 L 0.722,-4.116 C 0.514,-5.194 0.371,-6 0.293,-6.534 c -0.313,0.067 -0.578,0.098 -0.799,0.098 -0.234,0 -0.508,-0.031 -0.819,-0.098 0.064,0.287 0.188,0.813 0.37,1.58 0.285,1.209 0.487,2.132 0.604,2.77 l 0.234,1.188 C -0.039,-0.645 0,-0.312 0,0"
             style="fill:#ffffff;fill-opacity:1;fill-rule:nonzero;stroke:none"
             id="path68"
             inkscape:connector-curvature="0" /></g><g
           id="g70"
           transform="translate(127.8506,7.7031)"><path
             d="m 0,0 c 0.104,-0.326 0.328,-0.631 0.672,-0.916 0.345,-0.287 0.764,-0.43 1.258,-0.43 0.519,0 0.998,0.157 1.433,0.469 0.436,0.311 0.705,0.74 0.809,1.285 0.014,0.106 0.019,0.209 0.019,0.313 0,0.377 -0.139,0.66 -0.419,0.848 C 3.492,1.758 3.061,1.95 2.477,2.145 2.111,2.262 1.822,2.362 1.608,2.448 1.395,2.532 1.189,2.649 0.994,2.797 0.799,2.948 0.643,3.131 0.526,3.354 0.409,3.575 0.352,3.834 0.352,4.133 0.352,4.301 0.37,4.491 0.409,4.7 0.578,5.569 1,6.277 1.677,6.824 2.353,7.369 3.197,7.643 4.211,7.643 4.523,7.643 4.799,7.609 5.04,7.545 5.28,7.48 5.55,7.383 5.85,7.252 6.044,7.174 6.18,7.123 6.258,7.096 6.142,6.928 6.005,6.697 5.85,6.404 5.693,6.112 5.589,5.881 5.537,5.713 H 5.303 C 5.264,6.051 5.111,6.336 4.845,6.57 4.578,6.805 4.237,6.922 3.821,6.922 3.393,6.922 2.979,6.781 2.583,6.502 2.187,6.223 1.937,5.817 1.832,5.284 1.819,5.167 1.812,5.055 1.812,4.952 1.812,4.549 1.956,4.25 2.242,4.055 2.527,3.86 2.97,3.678 3.568,3.51 3.906,3.405 4.186,3.307 4.406,3.217 4.627,3.125 4.835,3.012 5.03,2.875 5.225,2.739 5.381,2.563 5.498,2.35 5.615,2.135 5.674,1.872 5.674,1.559 5.674,1.402 5.654,1.221 5.615,1.014 5.537,0.637 5.381,0.266 5.146,-0.098 4.913,-0.463 4.613,-0.793 4.25,-1.092 3.887,-1.391 3.467,-1.629 2.992,-1.805 2.518,-1.979 2.021,-2.066 1.501,-2.066 c -0.532,0 -0.991,0.06 -1.374,0.183 -0.384,0.125 -0.719,0.278 -1.004,0.459 0.117,0.182 0.243,0.42 0.38,0.711 0.136,0.293 0.224,0.529 0.263,0.713 z"
             style="fill:#ffffff;fill-opacity:1;fill-rule:nonzero;stroke:none"
             id="path72"
             inkscape:connector-curvature="0" /></g><g
           id="g74"
           transform="translate(136.1553,10.7251)"><path
             d="m 0,0 c 0.131,0.598 0.222,1.039 0.273,1.326 0.13,0.676 0.319,1.709 0.566,3.099 0.286,-0.064 0.553,-0.097 0.8,-0.097 0.234,0 0.507,0.033 0.818,0.097 C 2.262,3.697 2.048,2.84 1.814,1.852 1.58,0.865 1.379,-0.084 1.209,-0.994 1.118,-1.463 1.073,-1.872 1.073,-2.223 c 0,-0.481 0.091,-0.858 0.273,-1.131 0.169,-0.221 0.381,-0.396 0.633,-0.525 0.253,-0.131 0.556,-0.196 0.908,-0.196 0.519,0 0.99,0.114 1.413,0.34 0.423,0.229 0.757,0.529 1.004,0.908 0.156,0.246 0.272,0.444 0.35,0.594 0.078,0.149 0.154,0.348 0.225,0.596 0.071,0.246 0.152,0.575 0.244,0.985 0.09,0.408 0.214,1.035 0.37,1.881 0.13,0.623 0.247,1.218 0.351,1.783 0.103,0.566 0.181,1.036 0.234,1.413 0.285,-0.064 0.553,-0.097 0.799,-0.097 0.247,0 0.519,0.033 0.819,0.097 C 8.449,3.451 8.229,2.506 8.033,1.59 7.838,0.672 7.631,-0.357 7.41,-1.502 7.162,-2.788 6.967,-3.918 6.824,-4.895 c -0.272,0.066 -0.519,0.098 -0.74,0.098 -0.222,0 -0.481,-0.032 -0.78,-0.098 0.104,0.377 0.227,0.937 0.37,1.678 H 5.635 C 5.193,-3.815 4.67,-4.278 4.066,-4.602 3.461,-4.926 2.848,-5.088 2.223,-5.088 c -0.87,0 -1.539,0.203 -2.008,0.613 -0.468,0.41 -0.701,0.998 -0.701,1.764 0,0.248 0.025,0.521 0.078,0.82 C -0.305,-1.346 -0.168,-0.715 0,0"
             style="fill:#ffffff;fill-opacity:1;fill-rule:nonzero;stroke:none"
             id="path76"
             inkscape:connector-curvature="0" /></g><g
           id="g78"
           transform="translate(148.2832,14.9746)"><path
             d="M 0,0 C 0.091,0.469 0.185,0.965 0.282,1.492 0.38,2.018 0.471,2.532 0.556,3.031 0.64,3.533 0.718,4.014 0.79,4.475 0.86,4.936 0.909,5.317 0.936,5.616 1.247,5.551 1.533,5.518 1.794,5.518 2.054,5.518 2.353,5.551 2.69,5.616 2.612,5.331 2.521,4.969 2.417,4.534 2.313,4.098 2.206,3.633 2.096,3.139 1.985,2.645 1.868,2.104 1.745,1.512 1.621,0.92 1.521,0.416 1.442,0 L 0.761,-3.529 C 0.694,-3.878 0.607,-4.347 0.497,-4.931 0.386,-5.517 0.289,-6.061 0.204,-6.561 c -0.084,-0.5 -0.162,-0.99 -0.233,-1.472 -0.072,-0.481 -0.12,-0.85 -0.147,-1.112 -0.311,0.067 -0.598,0.098 -0.858,0.098 -0.26,0 -0.559,-0.031 -0.897,-0.098 0.078,0.288 0.172,0.651 0.284,1.092 0.109,0.444 0.216,0.91 0.321,1.405 0.104,0.494 0.218,1.033 0.341,1.619 0.124,0.584 0.224,1.084 0.302,1.5 z"
             style="fill:#ffffff;fill-opacity:1;fill-rule:nonzero;stroke:none"
             id="path80"
             inkscape:connector-curvature="0" /></g><g
           id="g82"
           transform="translate(155.4189,17.7642)"><path
             d="m 0,0 h 0.098 c -0.183,-0.676 -0.423,-1.639 -0.722,-2.887 0.144,0 0.433,0.008 0.868,0.019 0.435,0.014 0.841,0.028 1.218,0.039 C 1.436,-2.907 1.404,-3.03 1.365,-3.198 V -3.237 L 1.346,-3.276 C 1.318,-3.432 1.307,-3.557 1.307,-3.647 0.968,-3.622 0.637,-3.608 0.312,-3.608 h -1.073 c -0.026,-0.053 -0.087,-0.287 -0.184,-0.701 -0.098,-0.416 -0.193,-0.83 -0.284,-1.238 -0.09,-0.41 -0.195,-0.894 -0.312,-1.453 -0.116,-0.559 -0.221,-1.078 -0.312,-1.561 -0.143,-0.727 -0.213,-1.26 -0.213,-1.598 0,-0.429 0.089,-0.759 0.272,-0.994 0.183,-0.234 0.494,-0.351 0.937,-0.351 0.103,0 0.246,0.013 0.427,0.039 0.183,0.025 0.345,0.058 0.489,0.097 l -0.098,-0.468 c -0.273,-0.09 -0.546,-0.163 -0.818,-0.213 -0.274,-0.053 -0.521,-0.078 -0.743,-0.078 -0.662,0 -1.159,0.148 -1.49,0.447 -0.332,0.299 -0.498,0.728 -0.498,1.287 0,0.221 0.02,0.455 0.059,0.701 0.091,0.404 0.247,1.112 0.468,2.128 0.35,1.519 0.637,2.839 0.858,3.956 -0.546,0 -0.988,-0.014 -1.326,-0.039 v 0.039 c 0.064,0.182 0.103,0.318 0.117,0.41 0.013,0.065 0.025,0.174 0.039,0.33 v 0.059 c 0.572,-0.039 0.994,-0.059 1.268,-0.059 0.039,0.196 0.07,0.391 0.097,0.586 0.117,0.701 0.201,1.235 0.253,1.598 z"
             style="fill:#ffffff;fill-opacity:1;fill-rule:nonzero;stroke:none"
             id="path84"
             inkscape:connector-curvature="0" /></g><g
           id="g86"
           transform="translate(158.499,8.9902)"><path
             d="m 0,0 c 0,-0.832 0.188,-1.496 0.565,-1.99 0.377,-0.494 0.976,-0.74 1.794,-0.74 0.559,0 1.056,0.113 1.493,0.341 0.434,0.227 0.808,0.539 1.121,0.936 0.31,0.396 0.568,0.844 0.769,1.346 C 5.943,0.393 6.103,0.928 6.22,1.5 6.324,2.047 6.375,2.547 6.375,3.002 6.375,3.834 6.187,4.497 5.811,4.99 5.434,5.484 4.836,5.73 4.017,5.73 3.457,5.73 2.961,5.617 2.525,5.391 2.09,5.162 1.716,4.854 1.404,4.465 1.092,4.075 0.836,3.625 0.634,3.12 0.432,2.612 0.279,2.073 0.176,1.5 0.059,0.956 0,0.454 0,0 M -0.721,3.713 C -0.331,4.344 0.13,4.85 0.663,5.234 1.195,5.617 1.758,5.9 2.35,6.082 2.941,6.264 3.535,6.355 4.134,6.355 4.653,6.355 5.145,6.287 5.605,6.15 6.066,6.014 6.482,5.799 6.854,5.508 7.224,5.215 7.516,4.838 7.73,4.377 7.945,3.915 8.053,3.374 8.053,2.749 8.053,2.358 8.014,1.942 7.936,1.5 7.767,0.657 7.486,-0.078 7.098,-0.703 6.707,-1.326 6.246,-1.834 5.713,-2.223 5.18,-2.613 4.617,-2.898 4.026,-3.082 3.435,-3.264 2.84,-3.354 2.242,-3.354 c -0.519,0 -1.011,0.069 -1.471,0.204 -0.462,0.136 -0.878,0.351 -1.249,0.644 -0.37,0.293 -0.663,0.67 -0.877,1.131 -0.214,0.461 -0.321,1.004 -0.321,1.627 0,0.391 0.045,0.807 0.136,1.248 0.156,0.846 0.429,1.583 0.819,2.213"
             style="fill:#ffffff;fill-opacity:1;fill-rule:nonzero;stroke:none"
             id="path88"
             inkscape:connector-curvature="0" /></g><g
           id="g90"
           transform="translate(173.6484,13.5513)"><path
             d="m 0,0 c -0.052,0.078 -0.166,0.15 -0.341,0.215 -0.176,0.066 -0.361,0.097 -0.556,0.097 -0.612,0 -1.144,-0.255 -1.598,-0.769 -0.455,-0.514 -0.762,-1.16 -0.917,-1.939 v -0.02 c -0.117,-0.561 -0.243,-1.203 -0.38,-1.932 -0.137,-0.727 -0.24,-1.279 -0.312,-1.656 -0.072,-0.377 -0.127,-0.702 -0.167,-0.975 -0.039,-0.273 -0.07,-0.52 -0.097,-0.742 -0.273,0.066 -0.526,0.097 -0.76,0.097 -0.221,0 -0.5,-0.031 -0.838,-0.097 0.168,0.625 0.487,2.138 0.955,4.543 l 0.039,0.117 0.118,0.625 c 0.298,1.573 0.532,2.918 0.701,4.035 0.312,-0.064 0.578,-0.098 0.799,-0.098 0.234,0 0.5,0.034 0.8,0.098 C -2.671,1.197 -2.763,0.865 -2.827,0.605 -2.893,0.345 -2.957,0.047 -3.022,-0.291 l 0.039,-0.02 C -1.97,1.091 -0.976,1.794 0,1.794 0.13,1.794 0.233,1.787 0.312,1.775 0.39,1.761 0.487,1.728 0.604,1.677 0.513,1.546 0.435,1.349 0.37,1.082 0.306,0.816 0.233,0.488 0.155,0.098 Z"
             style="fill:#ffffff;fill-opacity:1;fill-rule:nonzero;stroke:none"
             id="path92"
             inkscape:connector-curvature="0" /></g><g
           id="g94"
           transform="translate(178.3564,14.4102)"><path
             d="m 0,0 c -0.383,-0.209 -0.715,-0.482 -0.994,-0.82 -0.279,-0.338 -0.514,-0.701 -0.702,-1.092 -0.189,-0.388 -0.335,-0.773 -0.439,-1.15 0.143,0 0.397,-0.006 0.76,-0.02 0.819,-0.025 1.41,-0.037 1.775,-0.037 0.364,0 0.968,0.012 1.813,0.037 0.363,0.014 0.624,0.02 0.78,0.02 0.091,0.443 0.136,0.846 0.136,1.209 0,0.637 -0.143,1.158 -0.428,1.56 C 2.414,0.109 1.934,0.311 1.258,0.311 0.803,0.311 0.383,0.207 0,0 m -2.223,-0.43 c 0.955,0.91 2.142,1.366 3.559,1.366 1.104,0 1.939,-0.278 2.505,-0.829 0.565,-0.552 0.848,-1.284 0.848,-2.192 0,-0.313 -0.033,-0.631 -0.097,-0.957 -0.027,-0.168 -0.085,-0.422 -0.176,-0.76 -0.468,0 -0.942,0.006 -1.423,0.019 -1.222,0.026 -2.139,0.039 -2.749,0.039 -0.377,0 -0.943,-0.013 -1.696,-0.039 -0.56,-0.013 -0.845,-0.019 -0.859,-0.019 -0.039,-0.129 -0.078,-0.299 -0.117,-0.506 l -0.019,-0.039 c -0.052,-0.301 -0.078,-0.6 -0.078,-0.899 0,-0.818 0.238,-1.475 0.713,-1.969 0.473,-0.494 1.152,-0.74 2.037,-0.74 0.506,0 1.058,0.129 1.657,0.391 0.597,0.259 1.111,0.589 1.54,0.994 L 3.52,-6.629 3.207,-7.584 C 2.727,-7.924 2.168,-8.205 1.531,-8.434 0.894,-8.66 0.289,-8.773 -0.283,-8.773 c -1.208,0 -2.167,0.337 -2.875,1.013 -0.709,0.676 -1.063,1.547 -1.063,2.612 0,0.313 0.033,0.631 0.098,0.955 0.311,1.6 0.945,2.854 1.9,3.763"
             style="fill:#ffffff;fill-opacity:1;fill-rule:nonzero;stroke:none"
             id="path96"
             inkscape:connector-curvature="0" /></g><g
           id="g98"
           transform="translate(184.1963,7.7031)"><path
             d="m 0,0 c 0.104,-0.326 0.328,-0.631 0.672,-0.916 0.345,-0.287 0.764,-0.43 1.258,-0.43 0.519,0 0.998,0.157 1.433,0.469 0.436,0.311 0.705,0.74 0.809,1.285 0.013,0.106 0.019,0.209 0.019,0.313 0,0.377 -0.139,0.66 -0.419,0.848 C 3.492,1.758 3.061,1.95 2.476,2.145 2.111,2.262 1.822,2.362 1.607,2.448 1.394,2.532 1.189,2.649 0.994,2.797 0.799,2.948 0.643,3.131 0.525,3.354 0.409,3.575 0.351,3.834 0.351,4.133 0.351,4.301 0.37,4.491 0.409,4.7 0.578,5.569 1,6.277 1.676,6.824 2.352,7.369 3.197,7.643 4.211,7.643 4.523,7.643 4.799,7.609 5.039,7.545 5.279,7.48 5.549,7.383 5.849,7.252 6.043,7.174 6.18,7.123 6.258,7.096 6.141,6.928 6.004,6.697 5.849,6.404 5.693,6.112 5.588,5.881 5.537,5.713 H 5.303 C 5.264,6.051 5.111,6.336 4.845,6.57 4.578,6.805 4.236,6.922 3.82,6.922 3.393,6.922 2.979,6.781 2.583,6.502 2.187,6.223 1.936,5.817 1.832,5.284 1.819,5.167 1.812,5.055 1.812,4.952 1.812,4.549 1.955,4.25 2.242,4.055 2.527,3.86 2.97,3.678 3.567,3.51 3.905,3.405 4.185,3.307 4.406,3.217 4.627,3.125 4.835,3.012 5.029,2.875 5.225,2.739 5.381,2.563 5.498,2.35 5.615,2.135 5.674,1.872 5.674,1.559 5.674,1.402 5.654,1.221 5.615,1.014 5.537,0.637 5.381,0.266 5.146,-0.098 4.912,-0.463 4.613,-0.793 4.25,-1.092 3.886,-1.391 3.467,-1.629 2.992,-1.805 2.518,-1.979 2.021,-2.066 1.501,-2.066 c -0.533,0 -0.991,0.06 -1.374,0.183 -0.385,0.125 -0.719,0.278 -1.005,0.459 0.117,0.182 0.243,0.42 0.38,0.711 0.137,0.293 0.225,0.529 0.264,0.713 z"
             style="fill:#ffffff;fill-opacity:1;fill-rule:nonzero;stroke:none"
             id="path100"
             inkscape:connector-curvature="0" /></g><g
           id="g102"
           transform="translate(210.6729,16.9043)"><path
             d="M 0,0 C -0.339,0.534 -0.846,0.986 -1.521,1.355 -2.197,1.727 -2.99,1.912 -3.9,1.912 -4.732,1.912 -5.518,1.787 -6.259,1.541 -7,1.295 -7.68,0.911 -8.297,0.391 c -0.617,-0.52 -1.143,-1.176 -1.578,-1.969 -0.436,-0.793 -0.758,-1.716 -0.966,-2.769 -0.116,-0.584 -0.175,-1.137 -0.175,-1.656 0,-1.43 0.412,-2.54 1.238,-3.325 0.825,-0.787 2.01,-1.18 3.558,-1.18 0.585,0 1.183,0.055 1.794,0.166 0.611,0.11 1.092,0.264 1.443,0.457 0.22,0.989 0.383,1.776 0.487,2.36 0.103,0.547 0.226,1.301 0.371,2.262 0.012,0.131 0.031,0.267 0.059,0.41 0.272,-0.066 0.578,-0.098 0.916,-0.098 0.35,0 0.636,0.032 0.857,0.098 -0.208,-0.779 -0.487,-2.1 -0.838,-3.96 -0.027,-0.115 -0.078,-0.376 -0.156,-0.779 -0.053,-0.299 -0.098,-0.564 -0.137,-0.799 -0.312,-0.103 -0.691,-0.211 -1.14,-0.322 -0.449,-0.109 -0.907,-0.211 -1.375,-0.303 -0.467,-0.089 -0.936,-0.164 -1.404,-0.222 -0.468,-0.059 -0.877,-0.088 -1.227,-0.088 -2.029,0 -3.595,0.445 -4.7,1.334 -1.105,0.89 -1.657,2.187 -1.657,3.891 0,0.559 0.059,1.143 0.175,1.754 0.222,1.092 0.592,2.074 1.111,2.945 0.521,0.869 1.174,1.605 1.96,2.203 0.786,0.597 1.68,1.053 2.681,1.363 1.001,0.313 2.08,0.469 3.236,0.469 1.17,0 2.116,-0.107 2.837,-0.322 C -0.205,2.098 0.428,1.826 0.975,1.502 0.844,1.334 0.708,1.1 0.564,0.801 0.422,0.502 0.312,0.234 0.233,0 Z"
             style="fill:#ffffff;fill-opacity:1;fill-rule:nonzero;stroke:none"
             id="path104"
             inkscape:connector-curvature="0" /></g><g
           id="g106"
           transform="translate(216.2783,14.4102)"><path
             d="m 0,0 c -0.385,-0.209 -0.716,-0.482 -0.995,-0.82 -0.279,-0.338 -0.514,-0.701 -0.702,-1.092 -0.188,-0.388 -0.334,-0.773 -0.439,-1.15 0.144,0 0.397,-0.006 0.761,-0.02 0.818,-0.025 1.41,-0.037 1.773,-0.037 0.365,0 0.969,0.012 1.815,0.037 0.363,0.014 0.623,0.02 0.779,0.02 0.091,0.443 0.137,0.846 0.137,1.209 0,0.637 -0.144,1.158 -0.43,1.56 C 2.414,0.109 1.933,0.311 1.257,0.311 0.802,0.311 0.383,0.207 0,0 m -2.223,-0.43 c 0.955,0.91 2.141,1.366 3.558,1.366 1.104,0 1.94,-0.278 2.505,-0.829 0.566,-0.552 0.848,-1.284 0.848,-2.192 0,-0.313 -0.032,-0.631 -0.097,-0.957 -0.027,-0.168 -0.085,-0.422 -0.175,-0.76 -0.469,0 -0.943,0.006 -1.424,0.019 -1.222,0.026 -2.138,0.039 -2.749,0.039 -0.378,0 -0.942,-0.013 -1.696,-0.039 -0.559,-0.013 -0.846,-0.019 -0.858,-0.019 -0.039,-0.129 -0.078,-0.299 -0.117,-0.506 l -0.019,-0.039 c -0.053,-0.301 -0.078,-0.6 -0.078,-0.899 0,-0.818 0.236,-1.475 0.711,-1.969 0.474,-0.494 1.154,-0.74 2.038,-0.74 0.506,0 1.059,0.129 1.657,0.391 0.598,0.259 1.111,0.589 1.54,0.994 L 3.519,-6.629 3.207,-7.584 C 2.726,-7.924 2.166,-8.205 1.529,-8.434 0.893,-8.66 0.289,-8.773 -0.283,-8.773 c -1.209,0 -2.168,0.337 -2.876,1.013 -0.708,0.676 -1.063,1.547 -1.063,2.612 0,0.313 0.033,0.631 0.098,0.955 0.311,1.6 0.945,2.854 1.901,3.763"
             style="fill:#ffffff;fill-opacity:1;fill-rule:nonzero;stroke:none"
             id="path108"
             inkscape:connector-curvature="0" /></g><g
           id="g110"
           transform="translate(227.8096,13.5513)"><path
             d="m 0,0 c -0.052,0.078 -0.165,0.15 -0.341,0.215 -0.175,0.066 -0.36,0.097 -0.555,0.097 -0.612,0 -1.144,-0.255 -1.599,-0.769 -0.455,-0.514 -0.761,-1.16 -0.917,-1.939 v -0.02 c -0.116,-0.561 -0.243,-1.203 -0.379,-1.932 -0.137,-0.727 -0.241,-1.279 -0.313,-1.656 -0.072,-0.377 -0.126,-0.702 -0.166,-0.975 -0.039,-0.273 -0.071,-0.52 -0.097,-0.742 -0.273,0.066 -0.526,0.097 -0.76,0.097 -0.221,0 -0.501,-0.031 -0.838,-0.097 0.168,0.625 0.486,2.138 0.955,4.543 l 0.039,0.117 0.117,0.625 c 0.299,1.573 0.533,2.918 0.702,4.035 0.312,-0.064 0.578,-0.098 0.798,-0.098 0.235,0 0.501,0.034 0.8,0.098 C -2.67,1.197 -2.762,0.865 -2.826,0.605 -2.892,0.345 -2.957,0.047 -3.021,-0.291 l 0.039,-0.02 C -1.969,1.091 -0.975,1.794 0,1.794 0.131,1.794 0.234,1.787 0.312,1.775 0.391,1.761 0.488,1.728 0.605,1.677 0.514,1.546 0.436,1.349 0.371,1.082 0.306,0.816 0.234,0.488 0.156,0.098 Z"
             style="fill:#ffffff;fill-opacity:1;fill-rule:nonzero;stroke:none"
             id="path112"
             inkscape:connector-curvature="0" /></g><g
           id="g114"
           transform="translate(232.5186,14.4102)"><path
             d="m 0,0 c -0.384,-0.209 -0.715,-0.482 -0.994,-0.82 -0.28,-0.338 -0.514,-0.701 -0.702,-1.092 -0.189,-0.388 -0.335,-0.773 -0.439,-1.15 0.143,0 0.397,-0.006 0.76,-0.02 0.819,-0.025 1.41,-0.037 1.774,-0.037 0.365,0 0.968,0.012 1.814,0.037 0.363,0.014 0.623,0.02 0.779,0.02 0.092,0.443 0.137,0.846 0.137,1.209 0,0.637 -0.143,1.158 -0.429,1.56 C 2.414,0.109 1.934,0.311 1.258,0.311 0.803,0.311 0.383,0.207 0,0 m -2.223,-0.43 c 0.955,0.91 2.141,1.366 3.559,1.366 1.103,0 1.939,-0.278 2.505,-0.829 0.565,-0.552 0.848,-1.284 0.848,-2.192 0,-0.313 -0.033,-0.631 -0.097,-0.957 -0.028,-0.168 -0.085,-0.422 -0.176,-0.76 -0.469,0 -0.943,0.006 -1.424,0.019 -1.221,0.026 -2.138,0.039 -2.748,0.039 -0.378,0 -0.943,-0.013 -1.697,-0.039 -0.559,-0.013 -0.845,-0.019 -0.858,-0.019 -0.039,-0.129 -0.078,-0.299 -0.117,-0.506 l -0.019,-0.039 c -0.052,-0.301 -0.078,-0.6 -0.078,-0.899 0,-0.818 0.237,-1.475 0.712,-1.969 0.474,-0.494 1.153,-0.74 2.038,-0.74 0.505,0 1.058,0.129 1.656,0.391 0.598,0.259 1.111,0.589 1.541,0.994 L 3.52,-6.629 3.207,-7.584 C 2.727,-7.924 2.167,-8.205 1.53,-8.434 0.894,-8.66 0.289,-8.773 -0.283,-8.773 c -1.209,0 -2.167,0.337 -2.875,1.013 -0.709,0.676 -1.063,1.547 -1.063,2.612 0,0.313 0.032,0.631 0.098,0.955 0.31,1.6 0.945,2.854 1.9,3.763"
             style="fill:#ffffff;fill-opacity:1;fill-rule:nonzero;stroke:none"
             id="path116"
             inkscape:connector-curvature="0" /></g><g
           id="g118"
           transform="translate(245.6299,12.3638)"><path
             d="m 0,0 c 0,0.637 -0.146,1.123 -0.438,1.461 -0.293,0.337 -0.7,0.507 -1.219,0.507 -0.897,0 -1.615,-0.273 -2.155,-0.818 -0.54,-0.546 -0.907,-1.339 -1.101,-2.379 l -0.331,-1.658 c -0.117,-0.623 -0.225,-1.258 -0.322,-1.901 -0.098,-0.644 -0.172,-1.224 -0.225,-1.746 -0.312,0.067 -0.598,0.098 -0.857,0.098 -0.26,0 -0.559,-0.031 -0.897,-0.098 0.156,0.494 0.309,1.073 0.458,1.737 0.15,0.662 0.282,1.298 0.4,1.91 l 0.41,2.028 c 0.116,0.625 0.223,1.254 0.321,1.892 0.097,0.636 0.172,1.22 0.224,1.754 0.312,-0.065 0.597,-0.098 0.858,-0.098 0.194,0 0.461,0.033 0.8,0.098 C -4.218,2.242 -4.342,1.72 -4.445,1.227 h 0.039 c 0.494,0.571 1.023,1.007 1.589,1.306 0.565,0.299 1.192,0.449 1.881,0.449 0.338,0 0.657,-0.039 0.956,-0.117 C 0.318,2.787 0.588,2.656 0.829,2.474 1.069,2.292 1.261,2.042 1.404,1.724 1.547,1.406 1.618,1.025 1.618,0.584 1.618,0.271 1.586,-0.059 1.521,-0.41 1.456,-0.773 1.339,-1.32 1.17,-2.049 0.975,-2.893 0.832,-3.549 0.741,-4.018 L 0.722,-4.116 C 0.514,-5.194 0.37,-6 0.293,-6.534 c -0.313,0.067 -0.579,0.098 -0.8,0.098 -0.234,0 -0.507,-0.031 -0.819,-0.098 0.065,0.287 0.188,0.813 0.371,1.58 0.285,1.209 0.487,2.132 0.604,2.77 l 0.234,1.188 C -0.039,-0.645 0,-0.312 0,0"
             style="fill:#ffffff;fill-opacity:1;fill-rule:nonzero;stroke:none"
             id="path120"
             inkscape:connector-curvature="0" /></g><g
           id="g122"
           transform="translate(249.9971,12.6255)"><path
             d="M 0,0 C 0.39,0.617 0.858,1.129 1.404,1.531 1.95,1.933 2.541,2.232 3.178,2.427 3.814,2.623 4.452,2.72 5.089,2.72 5.765,2.72 6.376,2.634 6.922,2.466 7.468,2.298 7.845,2.095 8.053,1.863 7.779,1.419 7.559,0.992 7.39,0.576 H 7.233 C 7.077,0.979 6.811,1.332 6.435,1.638 6.057,1.943 5.589,2.095 5.03,2.095 3.899,2.095 2.989,1.712 2.301,0.945 1.611,0.18 1.144,-0.842 0.897,-2.115 0.806,-2.596 0.761,-3.037 0.761,-3.441 c 0,-1.819 0.903,-2.729 2.71,-2.729 0.507,0 1.059,0.128 1.657,0.39 0.598,0.26 1.111,0.59 1.54,0.994 L 6.766,-4.844 C 6.648,-5.143 6.544,-5.461 6.454,-5.799 5.973,-6.139 5.414,-6.42 4.777,-6.649 4.14,-6.875 3.535,-6.989 2.964,-6.989 c -0.507,0 -0.994,0.071 -1.463,0.213 -0.468,0.145 -0.887,0.361 -1.257,0.654 -0.371,0.293 -0.663,0.672 -0.878,1.141 -0.214,0.467 -0.321,1.014 -0.321,1.637 0,0.377 0.045,0.781 0.137,1.209 C -0.663,-1.328 -0.39,-0.617 0,0"
             style="fill:#ffffff;fill-opacity:1;fill-rule:nonzero;stroke:none"
             id="path124"
             inkscape:connector-curvature="0" /></g><g
           id="g126"
           transform="translate(261.8125,19.2446)"><path
             d="m 0,0 c 0.233,0.195 0.487,0.293 0.76,0.293 0.234,0 0.429,-0.078 0.585,-0.234 0.156,-0.157 0.234,-0.345 0.234,-0.565 0,-0.028 -0.007,-0.059 -0.019,-0.098 V -0.702 C 1.508,-0.975 1.364,-1.209 1.131,-1.402 0.896,-1.598 0.644,-1.695 0.37,-1.695 c -0.233,0 -0.429,0.078 -0.585,0.234 -0.156,0.156 -0.233,0.343 -0.233,0.564 v 0.098 c 0.012,0.039 0.019,0.072 0.019,0.097 C -0.377,-0.428 -0.234,-0.194 0,0 m -1.521,-7.74 c 0.117,0.625 0.224,1.254 0.322,1.892 0.097,0.637 0.172,1.221 0.224,1.754 0.312,-0.065 0.598,-0.098 0.858,-0.098 0.26,0 0.558,0.033 0.896,0.098 C 0.624,-4.602 0.471,-5.182 0.321,-5.838 0.172,-6.496 0.039,-7.129 -0.078,-7.74 l -0.409,-2.028 c -0.117,-0.623 -0.225,-1.258 -0.323,-1.9 -0.097,-0.645 -0.171,-1.225 -0.223,-1.747 -0.313,0.067 -0.599,0.098 -0.859,0.098 -0.259,0 -0.558,-0.031 -0.896,-0.098 0.156,0.495 0.309,1.073 0.458,1.737 0.149,0.662 0.283,1.299 0.399,1.91 z"
             style="fill:#ffffff;fill-opacity:1;fill-rule:nonzero;stroke:none"
             id="path128"
             inkscape:connector-curvature="0" /></g><g
           id="g130"
           transform="translate(270.0596,10.7446)"><path
             d="m 0,0 c -0.208,-0.064 -0.598,-0.15 -1.17,-0.254 -0.507,-0.09 -0.913,-0.176 -1.219,-0.254 -0.305,-0.076 -0.614,-0.191 -0.925,-0.34 -0.313,-0.15 -0.58,-0.357 -0.8,-0.625 -0.221,-0.266 -0.364,-0.588 -0.429,-0.965 -0.039,-0.156 -0.059,-0.305 -0.059,-0.447 0,-0.444 0.134,-0.787 0.4,-1.033 0.266,-0.249 0.595,-0.372 0.985,-0.372 0.481,0 0.952,0.129 1.413,0.391 0.461,0.26 0.849,0.584 1.16,0.975 z m -4.134,3.47 c 0.637,0.416 1.219,0.709 1.745,0.877 0.527,0.168 1.063,0.254 1.609,0.254 0.819,0 1.466,-0.205 1.94,-0.615 C 1.634,3.578 1.871,3.029 1.871,2.34 1.871,2.145 1.853,1.937 1.813,1.715 1.735,1.312 1.586,0.598 1.364,-0.43 1.131,-1.494 0.962,-2.295 0.857,-2.827 V -2.846 C 0.793,-3.198 0.761,-3.452 0.761,-3.608 c 0,-0.207 0.042,-0.369 0.126,-0.486 0.085,-0.117 0.23,-0.176 0.438,-0.176 0.183,0 0.325,0.025 0.43,0.078 L 1.677,-4.622 C 1.494,-4.686 1.29,-4.749 1.062,-4.807 0.835,-4.866 0.604,-4.895 0.37,-4.895 c -0.377,0 -0.656,0.107 -0.838,0.322 -0.182,0.215 -0.273,0.51 -0.273,0.887 -0.585,-0.494 -1.128,-0.854 -1.628,-1.082 -0.5,-0.227 -1.069,-0.34 -1.706,-0.34 -0.598,0 -1.109,0.174 -1.53,0.525 -0.423,0.352 -0.634,0.819 -0.634,1.405 0,0.156 0.012,0.312 0.039,0.467 0.142,0.753 0.497,1.354 1.062,1.795 0.566,0.441 1.303,0.734 2.213,0.877 0.793,0.129 1.378,0.234 1.755,0.312 0.377,0.079 0.663,0.163 0.858,0.254 0.195,0.09 0.328,0.192 0.4,0.301 0.071,0.111 0.126,0.277 0.165,0.498 0.052,0.246 0.078,0.486 0.078,0.721 0,0.519 -0.14,0.939 -0.419,1.257 -0.279,0.319 -0.719,0.479 -1.316,0.479 -0.533,0 -1.043,-0.117 -1.531,-0.352 -0.487,-0.234 -0.88,-0.558 -1.179,-0.974 h -0.214 z"
             style="fill:#ffffff;fill-opacity:1;fill-rule:nonzero;stroke:none"
             id="path132"
             inkscape:connector-curvature="0" /></g><g
           id="g134"
           transform="translate(276.123,14.9746)"><path
             d="M 0,0 C 0.091,0.469 0.186,0.965 0.282,1.492 0.38,2.018 0.471,2.532 0.556,3.031 0.64,3.533 0.718,4.014 0.789,4.475 0.86,4.936 0.909,5.317 0.936,5.616 1.248,5.551 1.533,5.518 1.794,5.518 2.054,5.518 2.353,5.551 2.69,5.616 2.612,5.331 2.521,4.969 2.418,4.534 2.313,4.098 2.206,3.633 2.096,3.139 1.985,2.645 1.868,2.104 1.745,1.512 1.621,0.92 1.521,0.416 1.442,0 L 0.761,-3.529 C 0.695,-3.878 0.607,-4.347 0.497,-4.931 c -0.11,-0.586 -0.208,-1.13 -0.292,-1.63 -0.085,-0.5 -0.163,-0.99 -0.234,-1.472 -0.072,-0.481 -0.12,-0.85 -0.147,-1.112 -0.311,0.067 -0.597,0.098 -0.857,0.098 -0.261,0 -0.56,-0.031 -0.898,-0.098 0.078,0.288 0.173,0.651 0.284,1.092 0.11,0.444 0.217,0.91 0.321,1.405 0.104,0.494 0.218,1.033 0.342,1.619 0.123,0.584 0.223,1.084 0.301,1.5 z"
             style="fill:#ffffff;fill-opacity:1;fill-rule:nonzero;stroke:none"
             id="path136"
             inkscape:connector-curvature="0" /></g><g
           id="g138"
           transform="translate(283.4443,14.4102)"><path
             d="m 0,0 c -0.384,-0.209 -0.716,-0.482 -0.995,-0.82 -0.279,-0.338 -0.514,-0.701 -0.701,-1.092 -0.189,-0.388 -0.335,-0.773 -0.439,-1.15 0.143,0 0.396,-0.006 0.76,-0.02 0.819,-0.025 1.41,-0.037 1.774,-0.037 0.364,0 0.968,0.012 1.814,0.037 0.363,0.014 0.624,0.02 0.779,0.02 0.091,0.443 0.137,0.846 0.137,1.209 0,0.637 -0.144,1.158 -0.429,1.56 C 2.414,0.109 1.933,0.311 1.257,0.311 0.802,0.311 0.383,0.207 0,0 m -2.223,-0.43 c 0.955,0.91 2.141,1.366 3.558,1.366 1.104,0 1.94,-0.278 2.506,-0.829 0.565,-0.552 0.847,-1.284 0.847,-2.192 0,-0.313 -0.032,-0.631 -0.097,-0.957 -0.026,-0.168 -0.084,-0.422 -0.175,-0.76 -0.468,0 -0.943,0.006 -1.424,0.019 -1.221,0.026 -2.138,0.039 -2.749,0.039 -0.377,0 -0.942,-0.013 -1.696,-0.039 -0.559,-0.013 -0.845,-0.019 -0.858,-0.019 -0.039,-0.129 -0.078,-0.299 -0.117,-0.506 l -0.019,-0.039 c -0.052,-0.301 -0.078,-0.6 -0.078,-0.899 0,-0.818 0.237,-1.475 0.712,-1.969 0.474,-0.494 1.153,-0.74 2.037,-0.74 0.506,0 1.059,0.129 1.657,0.391 0.598,0.259 1.111,0.589 1.54,0.994 L 3.519,-6.629 3.207,-7.584 C 2.726,-7.924 2.167,-8.205 1.53,-8.434 0.894,-8.66 0.289,-8.773 -0.283,-8.773 c -1.209,0 -2.167,0.337 -2.876,1.013 -0.708,0.676 -1.063,1.547 -1.063,2.612 0,0.313 0.033,0.631 0.098,0.955 0.312,1.6 0.945,2.854 1.901,3.763"
             style="fill:#ffffff;fill-opacity:1;fill-rule:nonzero;stroke:none"
             id="path140"
             inkscape:connector-curvature="0" /></g><g
           id="g142"
           transform="translate(289.2832,7.7031)"><path
             d="m 0,0 c 0.104,-0.326 0.328,-0.631 0.673,-0.916 0.344,-0.287 0.764,-0.43 1.258,-0.43 0.519,0 0.997,0.157 1.432,0.469 0.436,0.311 0.705,0.74 0.81,1.285 0.013,0.106 0.018,0.209 0.018,0.313 0,0.377 -0.139,0.66 -0.419,0.848 C 3.493,1.758 3.062,1.95 2.477,2.145 2.112,2.262 1.823,2.362 1.608,2.448 1.395,2.532 1.189,2.649 0.994,2.797 0.8,2.948 0.644,3.131 0.526,3.354 0.409,3.575 0.351,3.834 0.351,4.133 0.351,4.301 0.37,4.491 0.409,4.7 0.578,5.569 1.001,6.277 1.677,6.824 2.353,7.369 3.197,7.643 4.211,7.643 4.523,7.643 4.8,7.609 5.04,7.545 5.28,7.48 5.55,7.383 5.85,7.252 6.044,7.174 6.181,7.123 6.259,7.096 6.142,6.928 6.005,6.697 5.85,6.404 5.693,6.112 5.589,5.881 5.537,5.713 H 5.303 C 5.265,6.051 5.111,6.336 4.845,6.57 4.578,6.805 4.237,6.922 3.821,6.922 3.393,6.922 2.979,6.781 2.583,6.502 2.187,6.223 1.937,5.817 1.833,5.284 1.819,5.167 1.813,5.055 1.813,4.952 1.813,4.549 1.956,4.25 2.242,4.055 2.528,3.86 2.97,3.678 3.568,3.51 3.906,3.405 4.186,3.307 4.406,3.217 4.627,3.125 4.835,3.012 5.03,2.875 5.226,2.739 5.381,2.563 5.498,2.35 5.615,2.135 5.674,1.872 5.674,1.559 5.674,1.402 5.654,1.221 5.615,1.014 5.537,0.637 5.381,0.266 5.147,-0.098 4.913,-0.463 4.614,-0.793 4.25,-1.092 3.887,-1.391 3.467,-1.629 2.993,-1.805 2.519,-1.979 2.021,-2.066 1.501,-2.066 c -0.533,0 -0.991,0.06 -1.374,0.183 -0.384,0.125 -0.719,0.278 -1.004,0.459 0.116,0.182 0.243,0.42 0.38,0.711 0.137,0.293 0.225,0.529 0.263,0.713 z"
             style="fill:#ffffff;fill-opacity:1;fill-rule:nonzero;stroke:none"
             id="path144"
             inkscape:connector-curvature="0" /></g><g
           id="g146"
           transform="translate(20.3467,14.7598)"><path
             d="m 0,0 h 39.274 c 4.479,0 6.964,-3.251 6.487,-7.4 -0.597,-5.18 -4.407,-7.36 -8.899,-7.36 h -52.934 c 0.177,0.899 2.704,12.747 3.157,14.76 z"
             style="fill:#e3b7a5;fill-opacity:1;fill-rule:nonzero;stroke:none"
             id="path148"
             inkscape:connector-curvature="0" /></g><g
           id="g150"
           transform="translate(16.0771,20.3579)"><path
             d="m 0,0 h 39.277 c 4.483,0 6.967,-3.249 6.491,-7.398 -0.598,-5.181 -4.409,-7.36 -8.899,-7.36 h -52.946 c 0.181,0.898 2.702,12.746 3.157,14.758 z"
             style="fill:#a4130e;fill-opacity:1;fill-rule:nonzero;stroke:none"
             id="path152"
             inkscape:connector-curvature="0" /></g><g
           id="g154"
           transform="translate(26.3525,40.8584)"><path
             d="m 0,0 h 39.27 c 4.479,0 6.963,-3.25 6.49,-7.397 -0.6,-5.182 -4.41,-7.359 -8.899,-7.359 h -52.935 c 0.179,0.894 2.704,12.746 3.158,14.756 z"
             style="fill:#e3b7a5;fill-opacity:1;fill-rule:nonzero;stroke:none"
             id="path156"
             inkscape:connector-curvature="0" /></g><g
           id="g158"
           transform="translate(21.9268,46.46)"><path
             d="m 0,0 h 39.281 c 4.481,0 6.966,-3.252 6.489,-7.398 -0.598,-5.182 -4.409,-7.364 -8.901,-7.364 h -52.945 c 0.18,0.902 2.704,12.75 3.159,14.762 z"
             style="fill:#a4130e;fill-opacity:1;fill-rule:nonzero;stroke:none"
             id="path160"
             inkscape:connector-curvature="0" /></g><g
           id="g162"
           transform="translate(31.9443,66.7705)"><path
             d="m 0,0 h 39.275 c 4.479,0 6.963,-3.25 6.487,-7.4 -0.598,-5.179 -4.407,-7.359 -8.899,-7.359 h -52.935 c 0.178,0.899 2.705,12.747 3.158,14.759 z"
             style="fill:#e3b7a5;fill-opacity:1;fill-rule:nonzero;stroke:none"
             id="path164"
             inkscape:connector-curvature="0" /></g><g
           id="g166"
           transform="translate(27.6104,72.5361)"><path
             d="m 0,0 h 39.28 c 4.482,0 6.966,-3.25 6.49,-7.398 -0.599,-5.18 -4.408,-7.359 -8.902,-7.359 h -52.944 c 0.179,0.896 2.705,12.747 3.158,14.757 z"
             style="fill:#a4130e;fill-opacity:1;fill-rule:nonzero;stroke:none"
             id="path168"
             inkscape:connector-curvature="0" /></g><g
           id="g170"
           transform="translate(111.8955,66.5132)"><path
             d="M 0,0 C 3.926,0 7.512,0.113 10.073,0.284 9.105,-1.708 8.992,-2.504 9.105,-4.098 6.09,-3.756 4.154,-3.586 -3.87,-3.586 c -1.309,-4.553 -2.333,-9.503 -2.959,-12.52 7.227,0 9.731,0.057 13.089,0.285 -1.025,-2.277 -0.967,-3.244 -0.91,-4.439 -3.871,0.455 -8.936,0.511 -12.976,0.511 -1.081,-5.007 -2.049,-10.072 -2.675,-15.139 7.399,0 8.936,0 13.203,0.399 -0.966,-2.276 -1.024,-3.129 -0.91,-4.268 -4.553,0.172 -8.537,0.285 -11.838,0.285 -3.984,0 -7.511,-0.113 -10.528,-0.285 2.276,7.173 7.284,31.643 8.194,39.041 C -8.765,0 -3.984,0 0,0"
             style="fill:#ffffff;fill-opacity:1;fill-rule:nonzero;stroke:none"
             id="path172"
             inkscape:connector-curvature="0" /></g><g
           id="g174"
           transform="translate(135.4932,56.4282)"><path
             d="m 0,0 c 2.268,0 5.039,0.084 7.854,0.21 -0.63,-1.554 -0.799,-2.184 -0.756,-3.444 -2.311,0.294 -5.881,0.505 -9.535,0.505 -0.713,-2.395 -1.764,-6.847 -2.225,-9.157 0.965,-0.084 2.016,-0.125 4.242,-0.125 2.141,0 3.485,0.084 5.207,0.168 -0.588,-1.553 -0.714,-2.227 -0.756,-3.36 -2.73,0.377 -6.384,0.504 -9.281,0.504 -1.597,-6.509 -2.059,-9.367 -2.772,-13.903 -1.093,0.125 -2.353,0.209 -3.529,0.209 -1.134,0 -2.435,-0.084 -3.402,-0.209 2.142,6.511 5.502,22.386 6.469,28.812 C -5.209,0.042 -2.395,0 0,0"
             style="fill:#ffffff;fill-opacity:1;fill-rule:nonzero;stroke:none"
             id="path176"
             inkscape:connector-curvature="0" /></g><g
           id="g178"
           transform="translate(156.4932,56.4282)"><path
             d="m 0,0 c 2.268,0 5.039,0.084 7.854,0.21 -0.63,-1.554 -0.799,-2.184 -0.756,-3.444 -2.311,0.294 -5.881,0.505 -9.535,0.505 -0.713,-2.395 -1.764,-6.847 -2.225,-9.157 0.965,-0.084 2.016,-0.125 4.242,-0.125 2.141,0 3.485,0.084 5.207,0.168 -0.588,-1.553 -0.714,-2.227 -0.756,-3.36 -2.73,0.377 -6.384,0.504 -9.281,0.504 -1.597,-6.509 -2.059,-9.367 -2.772,-13.903 -1.093,0.125 -2.353,0.209 -3.529,0.209 -1.134,0 -2.435,-0.084 -3.402,-0.209 2.142,6.511 5.502,22.386 6.469,28.812 C -5.209,0.042 -2.395,0 0,0"
             style="fill:#ffffff;fill-opacity:1;fill-rule:nonzero;stroke:none"
             id="path180"
             inkscape:connector-curvature="0" /></g><g
           id="g182"
           transform="translate(172.4111,56.4282)"><path
             d="m 0,0 c 1.385,0 2.394,0.126 3.359,0.21 -2.982,-9.911 -5.67,-22.342 -6.509,-28.812 -1.471,0.125 -2.52,0.209 -3.613,0.209 -1.049,0 -2.435,-0.125 -3.317,-0.209 1.302,4.495 2.393,8.358 4.619,18.817 1.303,6.131 1.639,8.399 1.891,9.995 C -2.521,0.126 -1.219,0 0,0"
             style="fill:#ffffff;fill-opacity:1;fill-rule:nonzero;stroke:none"
             id="path184"
             inkscape:connector-curvature="0" /></g><g
           id="g186"
           transform="translate(191.4785,29.7173)"><path
             d="m 0,0 c 7.77,0 11.886,10.29 11.886,16.799 0,4.872 -2.899,8.316 -7.813,8.316 -8.231,0 -11.76,-9.87 -11.76,-16.714 C -7.687,3.443 -5.082,0 0,0 m 3.653,27.467 c 7.855,0 14.491,-4.284 14.491,-12.767 0,-8.778 -6.804,-17.054 -17.892,-17.054 -7.812,0 -14.196,4.538 -14.196,12.812 0,9.323 7.181,17.009 17.597,17.009"
             style="fill:#ffffff;fill-opacity:1;fill-rule:nonzero;stroke:none"
             id="path188"
             inkscape:connector-curvature="0" /></g><g
           id="g190"
           transform="translate(257.5693,42.8213)"><path
             d="m 0,0 c 1.849,-0.057 3.809,-0.111 5.712,-0.111 1.736,0 3.584,0.054 5.04,0.111 C 9.856,4.928 9.185,8.175 7.896,13.103 5.208,8.791 2.464,4.424 0,0 m 22.4,-15.065 c -1.12,0.111 -2.912,0.279 -4.76,0.279 -1.904,0 -3.416,-0.168 -4.48,-0.279 -0.223,1.736 -0.448,4.031 -0.895,7.001 -0.113,0.785 -0.729,4.033 -0.841,4.705 -2.128,0.054 -4.199,0.111 -7.112,0.111 -2.912,0 -4.312,-0.057 -6.16,-0.111 -1.456,-2.465 -3.416,-5.993 -6.215,-11.706 -0.561,0.111 -1.289,0.279 -2.409,0.279 -1.064,0 -2.128,-0.168 -2.799,-0.279 3.863,6.161 7.616,12.377 11.255,18.704 8.064,14.056 8.792,15.344 11.312,20.16 0.56,-0.112 1.345,-0.28 2.128,-0.28 0.784,0 1.624,0.168 2.128,0.28 0.28,-1.68 5.096,-25.311 8.848,-38.864"
             style="fill:#ffffff;fill-opacity:1;fill-rule:nonzero;stroke:none"
             id="path192"
             inkscape:connector-curvature="0" /></g><g
           id="g194"
           transform="translate(301.9355,49.9185)"><path
             d="m 0,0 c -0.294,2.646 -1.933,4.662 -5.04,4.662 -2.814,0 -4.326,-1.932 -4.326,-3.822 0,-2.226 1.679,-3.654 4.914,-6.384 2.561,-2.141 4.83,-4.241 4.83,-7.938 0,-5.879 -4.746,-9.073 -10.164,-9.073 -3.318,0 -6.006,0.756 -8.778,2.563 0.881,1.68 1.511,3.695 1.805,5.125 h 0.883 c 0.21,-3.11 2.52,-5.293 5.796,-5.293 2.435,0 4.83,1.512 4.83,4.159 0,2.267 -2.017,3.99 -4.452,6.005 -2.857,2.352 -5.208,4.411 -5.208,8.358 0,5.712 4.284,8.862 9.702,8.862 2.981,0 5.46,-0.63 7.937,-2.226 C 1.638,2.94 1.302,1.512 0.924,0 Z"
             style="fill:#ffffff;fill-opacity:1;fill-rule:nonzero;stroke:none"
             id="path196"
             inkscape:connector-curvature="0" /></g><g
           id="g198"
           transform="translate(321.0029,29.7173)"><path
             d="m 0,0 c 7.771,0 11.886,10.29 11.886,16.799 0,4.872 -2.898,8.316 -7.812,8.316 -8.232,0 -11.76,-9.87 -11.76,-16.714 C -7.686,3.443 -5.082,0 0,0 m 3.654,27.467 c 7.854,0 14.49,-4.284 14.49,-12.767 0,-8.778 -6.804,-17.054 -17.892,-17.054 -7.812,0 -14.196,4.538 -14.196,12.812 0,9.323 7.182,17.009 17.598,17.009"
             style="fill:#ffffff;fill-opacity:1;fill-rule:nonzero;stroke:none"
             id="path200"
             inkscape:connector-curvature="0" /></g><g
           id="g202"
           transform="translate(367.3711,50.7583)"><path
             d="m 0,0 c -1.681,2.814 -4.074,3.948 -7.351,3.948 -8.357,0 -11.507,-8.946 -11.507,-15.959 0,-5.419 2.856,-8.946 8.358,-8.946 2.688,0 5.292,0.756 7.35,2.477 l 0.378,-0.293 c -0.63,-1.219 -1.05,-2.143 -1.554,-3.446 -1.807,-0.672 -3.445,-1.133 -6.342,-1.133 -11.467,0 -14.658,7.351 -14.658,13.231 0,9.155 7.097,16.505 17.346,16.505 5.501,0 8.61,-1.68 10.332,-2.604 C 1.47,2.52 0.798,0.924 0.42,0 Z"
             style="fill:#ffffff;fill-opacity:1;fill-rule:nonzero;stroke:none"
             id="path204"
             inkscape:connector-curvature="0" /></g><g
           id="g206"
           transform="translate(378.9199,56.4282)"><path
             d="m 0,0 c 1.387,0 2.395,0.126 3.36,0.21 -2.981,-9.911 -5.67,-22.342 -6.509,-28.812 -1.47,0.125 -2.521,0.209 -3.613,0.209 -1.05,0 -2.435,-0.125 -3.317,-0.209 1.302,4.495 2.393,8.358 4.619,18.817 1.303,6.131 1.639,8.399 1.891,9.995 C -2.52,0.126 -1.218,0 0,0"
             style="fill:#ffffff;fill-opacity:1;fill-rule:nonzero;stroke:none"
             id="path208"
             inkscape:connector-curvature="0" /></g><g
           id="g210"
           transform="translate(390.6797,39.126)"><path
             d="m 0,0 c 1.387,-0.043 2.856,-0.084 4.284,-0.084 1.302,0 2.689,0.041 3.78,0.084 C 7.393,3.695 6.889,6.131 5.923,9.827 3.906,6.594 1.849,3.316 0,0 m 16.8,-11.299 c -0.84,0.084 -2.184,0.209 -3.57,0.209 -1.427,0 -2.562,-0.125 -3.36,-0.209 -0.168,1.3 -0.336,3.023 -0.672,5.25 -0.084,0.588 -0.546,3.024 -0.63,3.528 -1.595,0.042 -3.15,0.083 -5.334,0.083 -2.183,0 -3.234,-0.041 -4.62,-0.083 -1.092,-1.848 -2.561,-4.495 -4.662,-8.778 -0.42,0.084 -0.966,0.209 -1.806,0.209 -0.797,0 -1.595,-0.125 -2.099,-0.209 2.897,4.619 5.712,9.281 8.441,14.028 6.048,10.542 6.594,11.507 8.485,15.12 0.42,-0.084 1.007,-0.21 1.595,-0.21 0.588,0 1.218,0.126 1.596,0.21 0.21,-1.261 3.822,-18.984 6.636,-29.148"
             style="fill:#ffffff;fill-opacity:1;fill-rule:nonzero;stroke:none"
             id="path212"
             inkscape:connector-curvature="0" /></g><g
           id="g214"
           transform="translate(425.918,54.1606)"><path
             d="m 0,0 c -0.84,0 -1.639,-0.042 -2.479,-0.084 -1.595,-5.922 -4.41,-19.068 -5.082,-23.771 0.756,-0.043 1.849,-0.127 2.815,-0.127 2.393,0 6.762,0.42 9.66,3.234 2.814,2.731 4.325,7.434 4.325,11.844 C 9.239,-3.234 6.426,0 0,0 m 7.476,-24.15 c -3.613,-1.975 -7.77,-2.184 -11.172,-2.184 -1.176,0 -6.384,0.209 -7.434,0.209 -1.765,0 -2.856,-0.125 -3.612,-0.209 1.596,5.123 5.46,22.554 6.258,28.812 1.427,-0.126 2.856,-0.21 4.284,-0.21 1.134,0 6.132,0.21 7.181,0.21 8.107,0 12.853,-5.502 12.853,-12.474 0,-4.535 -2.353,-10.879 -8.358,-14.154"
             style="fill:#ffffff;fill-opacity:1;fill-rule:nonzero;stroke:none"
             id="path216"
             inkscape:connector-curvature="0" /></g><g
           id="g218"
           transform="translate(458.6777,29.7173)"><path
             d="m 0,0 c 7.77,0 11.886,10.29 11.886,16.799 0,4.872 -2.898,8.316 -7.812,8.316 -8.232,0 -11.76,-9.87 -11.76,-16.714 C -7.686,3.443 -5.082,0 0,0 m 3.654,27.467 c 7.854,0 14.49,-4.284 14.49,-12.767 0,-8.778 -6.804,-17.054 -17.892,-17.054 -7.812,0 -14.196,4.538 -14.196,12.812 0,9.323 7.182,17.009 17.598,17.009"
             style="fill:#ffffff;fill-opacity:1;fill-rule:nonzero;stroke:none"
             id="path220"
             inkscape:connector-curvature="0" /></g><g
           id="g222"
           transform="translate(496.3936,49.9185)"><path
             d="m 0,0 c -0.294,2.646 -1.933,4.662 -5.04,4.662 -2.814,0 -4.326,-1.932 -4.326,-3.822 0,-2.226 1.679,-3.654 4.914,-6.384 2.561,-2.141 4.83,-4.241 4.83,-7.938 0,-5.879 -4.746,-9.073 -10.164,-9.073 -3.318,0 -6.006,0.756 -8.778,2.563 0.882,1.68 1.512,3.695 1.806,5.125 h 0.882 c 0.21,-3.11 2.52,-5.293 5.796,-5.293 2.435,0 4.83,1.512 4.83,4.159 0,2.267 -2.017,3.99 -4.452,6.005 -2.857,2.352 -5.208,4.411 -5.208,8.358 0,5.712 4.284,8.862 9.702,8.862 2.981,0 5.46,-0.63 7.937,-2.226 C 1.638,2.94 1.302,1.512 0.924,0 Z"
             style="fill:#ffffff;fill-opacity:1;fill-rule:nonzero;stroke:none"
             id="path224"
             inkscape:connector-curvature="0" /></g><g
           id="g226"
           transform="translate(236.6689,50.7197)"><path
             d="m 0,0 c 0.503,-0.101 0.937,-0.167 1.709,-0.167 0.736,0 1.307,0.066 1.909,0.167 -3.651,-4.322 -8.174,-10.518 -9.882,-13.098 -0.771,-3.283 -1.408,-6.567 -1.877,-9.883 -0.602,0.066 -1.473,0.168 -2.679,0.168 -1.139,0 -1.842,-0.102 -2.58,-0.168 0.704,2.613 1.642,6.936 2.111,9.583 -1.006,3.316 -3.618,10.852 -4.59,13.398 0.805,-0.101 1.475,-0.167 2.647,-0.167 1.306,0 2.177,0.1 2.914,0.167 0.636,-2.781 1.172,-5.092 2.949,-10.887 C -4.12,-6.498 -0.703,-1.139 0,0"
             style="fill:#ffffff;fill-opacity:1;fill-rule:nonzero;stroke:none"
             id="path228"
             inkscape:connector-curvature="0" /></g></g></g></g></svg>