<?xml version="1.0" encoding="UTF-8" standalone="no"?>
<!-- Created with Inkscape (http://www.inkscape.org/) -->

<svg
   xmlns:dc="http://purl.org/dc/elements/1.1/"
   xmlns:cc="http://creativecommons.org/ns#"
   xmlns:rdf="http://www.w3.org/1999/02/22-rdf-syntax-ns#"
   xmlns:svg="http://www.w3.org/2000/svg"
   xmlns="http://www.w3.org/2000/svg"
   xmlns:sodipodi="http://sodipodi.sourceforge.net/DTD/sodipodi-0.dtd"
   xmlns:inkscape="http://www.inkscape.org/namespaces/inkscape"
   version="1.1"
   id="svg40"
   xml:space="preserve"
   width="204.09332"
   height="191.73734"
   viewBox="0 0 204.09332 191.73734"
   sodipodi:docname="headphones.svg"
   inkscape:version="0.92.3 (2405546, 2018-03-11)"><metadata
     id="metadata46"><rdf:RDF><cc:Work
         rdf:about=""><dc:format>image/svg+xml</dc:format><dc:type
           rdf:resource="http://purl.org/dc/dcmitype/StillImage" /><dc:title></dc:title></cc:Work></rdf:RDF></metadata><defs
     id="defs44"><clipPath
       clipPathUnits="userSpaceOnUse"
       id="clipPath56"><path
         d="M 0,143.803 H 153.07 V 0 H 0 Z"
         id="path54"
         inkscape:connector-curvature="0" /></clipPath></defs><sodipodi:namedview
     pagecolor="#ffffff"
     bordercolor="#666666"
     borderopacity="1"
     objecttolerance="10"
     gridtolerance="10"
     guidetolerance="10"
     inkscape:pageopacity="0"
     inkscape:pageshadow="2"
     inkscape:window-width="640"
     inkscape:window-height="480"
     id="namedview42"
     showgrid="false"
     inkscape:zoom="2.8111374"
     inkscape:cx="102.04666"
     inkscape:cy="181.24336"
     inkscape:window-x="0"
     inkscape:window-y="0"
     inkscape:window-maximized="1"
     inkscape:current-layer="g48" /><g
     id="g48"
     inkscape:groupmode="layer"
     inkscape:label="headphones"
     transform="matrix(1.3333333,0,0,-1.3333333,0,191.73733)"><g
       id="g50"><g
         id="g52"
         clip-path="url(#clipPath56)"><g
           id="g58"
           transform="translate(89.9883,8.9697)"><path
             d="m 0,0 h -13.453 c -2.473,0 -4.484,2.012 -4.484,4.484 0,2.473 2.011,4.485 4.484,4.485 L 0,8.969 Z m 44.828,77.835 c -0.693,31.547 -26.57,56.998 -58.281,56.998 -31.711,0 -57.588,-25.451 -58.282,-56.998 -10.765,-4.981 -18.253,-15.886 -18.253,-28.506 0,-17.309 14.082,-31.392 31.391,-31.392 h 4.485 V 80.72 h -4.485 c -1.364,0 -2.709,-0.088 -4.029,-0.258 2.008,25.371 23.294,45.401 49.173,45.401 25.879,0 47.164,-20.03 49.173,-45.401 -1.32,0.17 -2.664,0.258 -4.03,0.258 H 27.206 V 17.937 h 4.484 c 1.419,0 2.816,0.097 4.186,0.281 V 8.969 H 8.969 v 8.968 h -22.422 c -7.418,0 -13.454,-6.035 -13.454,-13.453 0,-7.419 6.036,-13.454 13.454,-13.454 H 8.969 V 0 h 35.876 v 20.831 c 10.757,4.984 18.237,15.883 18.237,28.498 0,12.62 -7.488,23.525 -18.254,28.506"
             style="fill:#ffffff;fill-opacity:1;fill-rule:nonzero;stroke:none"
             id="path60"
             inkscape:connector-curvature="0" /></g></g></g></g></svg>