<?xml version="1.0" encoding="UTF-8" standalone="no"?>
<!-- Created with Inkscape (http://www.inkscape.org/) -->

<svg
   xmlns:dc="http://purl.org/dc/elements/1.1/"
   xmlns:cc="http://creativecommons.org/ns#"
   xmlns:rdf="http://www.w3.org/1999/02/22-rdf-syntax-ns#"
   xmlns:svg="http://www.w3.org/2000/svg"
   xmlns="http://www.w3.org/2000/svg"
   xmlns:sodipodi="http://sodipodi.sourceforge.net/DTD/sodipodi-0.dtd"
   xmlns:inkscape="http://www.inkscape.org/namespaces/inkscape"
   version="1.1"
   id="svg10"
   xml:space="preserve"
   width="646.948"
   height="485.21066"
   viewBox="0 0 646.948 485.21066"
   sodipodi:docname="mail.svg"
   inkscape:version="0.92.3 (2405546, 2018-03-11)"><metadata
     id="metadata16"><rdf:RDF><cc:Work
         rdf:about=""><dc:format>image/svg+xml</dc:format><dc:type
           rdf:resource="http://purl.org/dc/dcmitype/StillImage" /><dc:title></dc:title></cc:Work></rdf:RDF></metadata><defs
     id="defs14"><clipPath
       clipPathUnits="userSpaceOnUse"
       id="clipPath26"><path
         d="M 0,363.908 H 485.211 V 0 H 0 Z"
         id="path24"
         inkscape:connector-curvature="0" /></clipPath></defs><sodipodi:namedview
     pagecolor="#ffffff"
     bordercolor="#666666"
     borderopacity="1"
     objecttolerance="10"
     gridtolerance="10"
     guidetolerance="10"
     inkscape:pageopacity="0"
     inkscape:pageshadow="2"
     inkscape:window-width="1366"
     inkscape:window-height="706"
     id="namedview12"
     showgrid="false"
     inkscape:zoom="0.39274751"
     inkscape:cx="278.06051"
     inkscape:cy="268.54235"
     inkscape:window-x="-8"
     inkscape:window-y="-8"
     inkscape:window-maximized="1"
     inkscape:current-layer="g18" /><g
     id="g18"
     inkscape:groupmode="layer"
     inkscape:label="Objeto inteligente vectorial"
     transform="matrix(1.3333333,0,0,-1.3333333,0,485.21067)"><g
       id="g20"><g
         id="g22"
         clip-path="url(#clipPath26)"><g
           id="g28"
           transform="translate(9.4473,335.4736)"><path
             d="m 0,0 c -5.894,-9.355 -9.447,-20.344 -9.447,-32.22 v -242.602 c 0,-10.637 2.977,-20.498 7.789,-29.174 l 153.182,171.44 z m 291.945,-152.546 -48.808,-42.734 c -2.856,-2.487 -6.41,-3.729 -9.979,-3.729 -3.569,0 -7.125,1.242 -9.979,3.729 L 174.358,-152.544 19.22,-326.146 c 9.299,-5.833 20.196,-9.328 31.982,-9.328 h 363.911 c 11.784,0 22.687,3.495 31.984,9.328 z m -58.787,-11.162 210.863,184.5 c -8.653,4.737 -18.397,7.642 -28.908,7.642 H 51.203 c -10.523,0 -20.27,-2.905 -28.889,-7.642 z m 242.606,-111.113 c 0,-10.637 -2.993,-20.498 -7.785,-29.174 l -153.202,171.41 151.54,132.584 c 5.895,-9.355 9.447,-20.344 9.447,-32.219 z"
             style="fill:#ffffff;fill-opacity:1;fill-rule:nonzero;stroke:none"
             id="path30"
             inkscape:connector-curvature="0" /></g></g></g></g></svg>