<?xml version="1.0" encoding="UTF-8" standalone="no"?>
<!-- Created with Inkscape (http://www.inkscape.org/) -->

<svg
   xmlns:dc="http://purl.org/dc/elements/1.1/"
   xmlns:cc="http://creativecommons.org/ns#"
   xmlns:rdf="http://www.w3.org/1999/02/22-rdf-syntax-ns#"
   xmlns:svg="http://www.w3.org/2000/svg"
   xmlns="http://www.w3.org/2000/svg"
   xmlns:sodipodi="http://sodipodi.sourceforge.net/DTD/sodipodi-0.dtd"
   xmlns:inkscape="http://www.inkscape.org/namespaces/inkscape"
   version="1.1"
   id="svg70"
   xml:space="preserve"
   width="395.07199"
   height="573.48535"
   viewBox="0 0 395.07199 573.48535"
   sodipodi:docname="marker.svg"
   inkscape:version="0.92.3 (2405546, 2018-03-11)"><metadata
     id="metadata76"><rdf:RDF><cc:Work
         rdf:about=""><dc:format>image/svg+xml</dc:format><dc:type
           rdf:resource="http://purl.org/dc/dcmitype/StillImage" /><dc:title></dc:title></cc:Work></rdf:RDF></metadata><defs
     id="defs74"><clipPath
       clipPathUnits="userSpaceOnUse"
       id="clipPath86"><path
         d="M 0,430.114 H 296.304 V 0 H 0 Z"
         id="path84"
         inkscape:connector-curvature="0" /></clipPath></defs><sodipodi:namedview
     pagecolor="#ffffff"
     bordercolor="#666666"
     borderopacity="1"
     objecttolerance="10"
     gridtolerance="10"
     guidetolerance="10"
     inkscape:pageopacity="0"
     inkscape:pageshadow="2"
     inkscape:window-width="640"
     inkscape:window-height="480"
     id="namedview72"
     showgrid="false"
     inkscape:zoom="0.54578552"
     inkscape:cx="197.536"
     inkscape:cy="286.74268"
     inkscape:window-x="0"
     inkscape:window-y="0"
     inkscape:window-maximized="1"
     inkscape:current-layer="g78" /><g
     id="g78"
     inkscape:groupmode="layer"
     inkscape:label="marker"
     transform="matrix(1.3333333,0,0,-1.3333333,0,573.48533)"><g
       id="g80"><g
         id="g82"
         clip-path="url(#clipPath86)"><g
           id="g88"
           transform="translate(147.3408,230.9209)"><path
             d="m 0,0 c -19.107,0 -40.021,9.554 -50.345,35.939 -1.538,4.2 -1.414,12.617 -1.414,13.388 v 11.852 c 0,33.636 28.561,48.932 53.406,48.932 30.588,0 54.246,-24.472 54.246,-55.06 C 55.893,24.464 30.588,0 0,0 m 141.963,92.142 c -1.531,5.738 -4.641,11.852 -6.941,17.205 -27.521,66.142 -87.657,89.846 -136.212,89.846 -65.001,0 -136.592,-43.586 -146.151,-133.427 V 47.411 c 0,-0.766 0.265,-7.647 0.64,-11.089 5.357,-42.816 39.142,-88.32 64.375,-131.135 27.145,-45.874 55.313,-91 83.221,-136.108 17.208,29.438 34.354,59.26 51.169,87.934 4.583,8.416 9.904,16.824 14.492,24.857 3.057,5.348 8.9,10.695 11.569,15.672 27.145,49.699 70.838,99.782 70.838,149.104 v 20.262 c 0.001,5.347 -6.627,24.081 -7,25.234"
             style="fill:#ffffff;fill-opacity:1;fill-rule:nonzero;stroke:none"
             id="path90"
             inkscape:connector-curvature="0" /></g></g></g></g></svg>